<svg width="30" height="30" viewBox="0 0 30 30" fill="none" xmlns="http://www.w3.org/2000/svg">
<g clip-path="url(#clip0)">
<path d="M29.5 27H28V17.5C28 17.224 27.7755 17 27.4995 17.0005C27.3365 17.0005 27.1839 17.08 27.0905 17.2135L20.0905 27.2135C19.9324 27.4401 19.9875 27.7515 20.214 27.91C20.2975 27.9685 20.3975 28 20.5 28H27V29.5C27 29.776 27.224 30 27.4999 30C27.7759 30 27.9999 29.776 27.9999 29.5V28H29.4999C29.7759 28 29.9999 27.776 29.9999 27.5001C30 27.224 29.776 27 29.5 27ZM27 19.086V27H21.46L27 19.086Z" fill="black"/>
<path d="M20.4998 29H14.5803L20.0838 22.5195C20.0963 22.5045 20.1078 22.4889 20.1188 22.4729C21.1543 20.9404 20.8093 18.866 19.3338 17.7509C17.5398 16.4619 15.0403 16.8714 13.7513 18.6654C13.2628 19.3454 12.9998 20.1624 12.9998 20.9999C12.9998 21.2759 13.2238 21.4999 13.4997 21.4999C13.7757 21.4999 13.9997 21.2759 13.9997 20.9999C13.9997 19.3429 15.3427 17.9999 16.9992 17.9994C17.6272 17.9994 18.2392 18.1963 18.7497 18.5629C19.7832 19.3549 20.0242 20.8134 19.2997 21.8954L13.1188 29.1765C12.9403 29.3871 12.9658 29.7025 13.1763 29.881C13.2668 29.958 13.3813 30 13.4998 30H20.4998C20.7758 30 20.9998 29.776 20.9998 29.5C20.9998 29.224 20.7758 29 20.4998 29Z" fill="black"/>
<path d="M13.511 26.5095C13.5215 26.2335 13.306 26.0015 13.03 25.991C6.50701 25.749 1.27148 20.5225 1.01748 14H3C3.27598 14 3.49998 13.776 3.49998 13.5C3.49998 13.224 3.27598 13 3 13H1.01748C1.2675 6.48902 6.48896 1.26803 13 1.01801V2.50002C13 2.776 13.224 3 13.4999 3C13.7759 3 13.9999 2.776 13.9999 2.50002V1.01801C20.4219 1.2665 25.6054 6.35203 25.9759 12.768L24.0259 10.818C23.8274 10.626 23.5109 10.6315 23.3189 10.8305C23.1319 11.0245 23.1319 11.3314 23.3189 11.525L26.1099 14.316C26.1624 14.3795 26.2304 14.429 26.3069 14.4595C26.3264 14.4654 26.3464 14.47 26.3664 14.4739C26.4009 14.4864 26.4364 14.4949 26.4724 14.4994C26.4773 14.4994 26.4819 14.4994 26.4868 14.4994C26.4918 14.4994 26.4963 14.4994 26.5008 14.4994C26.5389 14.4964 26.5764 14.4889 26.6128 14.4775C26.6333 14.4749 26.6538 14.471 26.6738 14.466C26.7413 14.442 26.8033 14.4035 26.8543 14.3529L29.6834 11.5249C29.8754 11.3264 29.8699 11.0099 29.6709 10.8179C29.4769 10.631 29.1699 10.631 28.9764 10.8179L26.9779 12.8149C26.621 5.64803 20.7115 0.0175195 13.5355 0.00697266C13.523 0.00650391 13.5125 0 13.5 0C13.4875 0 13.477 0.00650391 13.4645 0.00697266C6.0365 0.0169922 0.0169922 6.0365 0.00697266 13.4645C0.00697266 13.477 0 13.4875 0 13.5C0 13.5125 0.00650391 13.523 0.00697266 13.5355C0.0194531 20.7805 5.75297 26.721 12.993 26.9905H13.0115C13.28 26.9905 13.501 26.778 13.511 26.5095Z" fill="black"/>
<path d="M20.2174 6.78252C20.0224 6.58752 19.7054 6.58752 19.5104 6.78252L14.1375 12.155C13.7315 11.974 13.268 11.974 12.8619 12.155L10.3179 9.61101C10.1194 9.419 9.80293 9.42451 9.61092 9.62349C9.42394 9.8175 9.42394 10.1245 9.61092 10.318L12.1499 12.857C11.7934 13.6035 12.1094 14.497 12.8559 14.8535C13.4289 15.127 14.1119 15.01 14.5604 14.561C15.0114 14.1135 15.1279 13.4285 14.8494 12.8575L20.2174 7.48951C20.4124 7.29451 20.4124 6.97752 20.2174 6.78252ZM13.8535 13.8535C13.6559 14.0425 13.344 14.0425 13.1465 13.8535C12.9509 13.6585 12.9509 13.3415 13.1465 13.1465C13.342 12.9515 13.6585 12.951 13.8535 13.1465C14.049 13.3415 14.049 13.658 13.8535 13.8535Z" fill="black"/>
</g>
<defs>
<clipPath id="clip0">
<rect width="30" height="30" fill="white"/>
</clipPath>
</defs>
</svg>
