<svg width="30" height="30" viewBox="0 0 30 30" fill="none" xmlns="http://www.w3.org/2000/svg">
<path d="M29.5 5.50088H27.5V3.00088C27.501 2.72475 27.2779 2.50007 27.0018 2.49913C26.9871 2.49907 26.9726 2.49969 26.958 2.50088L25.6535 2.61088C22.4901 2.8725 19.3873 3.62907 16.4585 4.85288L15 5.45938L13.543 4.85488C10.6139 3.63088 7.51075 2.87419 4.347 2.61238L3.042 2.50088C2.76681 2.47769 2.52494 2.68194 2.50175 2.95713C2.5005 2.97169 2.49994 2.98632 2.5 3.00088V5.50088H0.5C0.223875 5.50088 0 5.72475 0 6.00088V27.0009C0 27.277 0.223875 27.5009 0.5 27.5009H29.5C29.7761 27.5009 30 27.277 30 27.0009V6.00088C30 5.72475 29.7761 5.50088 29.5 5.50088ZM1 26.5019V6.50088H2.5V24.0009C2.49906 24.2613 2.69806 24.4788 2.9575 24.5009L4.303 24.6159C4.66969 24.6466 5.03631 24.6844 5.403 24.7294C5.5255 24.7439 5.647 24.7634 5.7695 24.7794C6.012 24.8119 6.2545 24.8444 6.496 24.8829C6.64 24.9059 6.7835 24.9329 6.927 24.9584C7.146 24.9969 7.365 25.0354 7.583 25.0784C7.733 25.1084 7.883 25.1414 8.033 25.1739C8.2435 25.2189 8.454 25.2649 8.6635 25.3149C8.8135 25.3509 8.966 25.3894 9.117 25.4279C9.3235 25.4809 9.5295 25.5349 9.735 25.5919C9.885 25.6339 10.035 25.6779 10.185 25.7219C10.389 25.7822 10.5925 25.8449 10.7955 25.9099C10.9442 25.9572 11.0925 26.0059 11.2405 26.0559C11.445 26.1244 11.648 26.1964 11.851 26.2699C11.995 26.3199 12.1395 26.3744 12.2825 26.4289C12.3445 26.4524 12.406 26.4789 12.4675 26.5019H1ZM14.5 26.2509L13.578 25.8659C10.6511 24.6396 7.54987 23.8804 4.3875 23.6159L3.5 23.5419V3.54488L4.263 3.60888C7.32337 3.86175 10.3251 4.5935 13.1585 5.77738L14.5 6.33438V26.2509ZM15.5 26.2509V6.33438L16.843 5.77688C19.6759 4.59325 22.6771 3.86169 25.737 3.60888L26.5 3.54488V23.5404L25.6785 23.6074C22.5142 23.8701 19.4102 24.6248 16.4785 25.8444L15.5 26.2509ZM29 26.5009H17.54C17.6085 26.4744 17.6765 26.4464 17.745 26.4204C17.895 26.3629 18.045 26.3084 18.1985 26.2539C18.3945 26.1829 18.5913 26.1141 18.789 26.0474C18.943 25.9974 19.098 25.9474 19.2525 25.8974C19.45 25.8344 19.6485 25.7744 19.847 25.7154C20.003 25.6694 20.1595 25.6239 20.316 25.5809C20.516 25.5249 20.716 25.4724 20.921 25.4209C21.076 25.3814 21.2315 25.3419 21.3875 25.3049C21.5955 25.2549 21.805 25.2099 22.0145 25.1654C22.1645 25.1329 22.3145 25.0994 22.4675 25.0694C22.6875 25.0259 22.9085 24.9874 23.129 24.9489C23.272 24.9239 23.4145 24.8989 23.558 24.8739C23.8045 24.8349 24.0515 24.8014 24.299 24.7684C24.4175 24.7529 24.536 24.7339 24.655 24.7184C25.0217 24.6741 25.3902 24.6362 25.7605 24.6049L27.041 24.5009C27.301 24.4795 27.5009 24.2618 27.5 24.0009V6.50088H29V26.5009Z" fill="black"/>
</svg>
