<svg width="30" height="30" viewBox="0 0 30 30" fill="none" xmlns="http://www.w3.org/2000/svg">
<path d="M27.5 29V12H28C28.2761 12 28.5 11.7761 28.5 11.5V9.5C28.5 9.22388 28.2761 9 28 9H15.5V3H16C16.2761 3 16.5 2.77612 16.5 2.5V0.5C16.5 0.223875 16.2761 0 16 0H2C1.72388 0 1.5 0.223875 1.5 0.5V2.5C1.5 2.77612 1.72388 3 2 3H2.5V29H0V30H30V29H27.5ZM27.5 10V11H15.5V10H27.5ZM2.5 1H15.5V2H2.5V1ZM14.5 29H3.5V27H10V26H3.5V24H10V23H3.5V21H10V20H3.5V18H10V17H3.5V15H10V14H3.5V12H10V11H3.5V9H10V8H3.5V6H10V5H3.5V3H14.5V29ZM26.5 29H15.5V27H22V26H15.5V24H22V23H15.5V21H22V20H15.5V18H22V17H15.5V15H22V14H15.5V12H26.5V29Z" fill="black"/>
</svg>
