<svg width="965" height="239" viewBox="0 0 965 239" fill="none" xmlns="http://www.w3.org/2000/svg">
<path d="M372.046 158.678C366.772 165.052 360.551 169.931 353.387 173.317C346.222 176.603 338.21 178.246 329.352 178.246C321.391 178.246 313.977 176.802 307.111 173.914C300.344 171.027 294.472 167.093 289.497 162.114C284.521 157.135 280.588 151.259 277.703 144.488C274.818 137.616 273.374 130.247 273.374 122.38C273.374 114.513 274.818 107.194 277.703 100.422C280.588 93.5506 284.521 87.6253 289.497 82.6463C294.472 77.6672 300.344 73.7336 307.111 70.8456C313.977 67.9578 321.391 66.5138 329.352 66.5138C337.911 66.5138 345.426 68.0075 351.894 70.995C358.463 73.9825 364.283 78.3144 369.359 83.9906L355.178 97.7331C351.993 94.0486 348.31 91.111 344.131 88.92C340.051 86.7291 335.175 85.6338 329.502 85.6338C324.527 85.6338 319.849 86.53 315.47 88.3225C311.092 90.0155 307.26 92.4553 303.975 95.6419C300.792 98.8284 298.253 102.712 296.363 107.293C294.472 111.774 293.526 116.803 293.526 122.38C293.526 127.957 294.472 133.035 296.363 137.616C298.253 142.098 300.792 145.932 303.975 149.118C307.26 152.305 311.092 154.794 315.47 156.587C319.849 158.28 324.527 159.126 329.502 159.126C335.473 159.126 340.748 157.931 345.325 155.541C350.003 153.052 354.133 149.566 357.716 145.085L372.046 158.678ZM437.371 178.246C429.41 178.246 421.995 176.802 415.129 173.914C408.363 171.027 402.489 167.093 397.514 162.114C392.538 157.035 388.607 151.11 385.722 144.338C382.934 137.467 381.541 130.148 381.541 122.38C381.541 114.613 382.934 107.343 385.722 100.571C388.607 93.7 392.538 87.7749 397.514 82.7956C402.489 77.7169 408.363 73.7336 415.129 70.8456C421.995 67.9578 429.41 66.5138 437.371 66.5138C445.331 66.5138 452.698 67.9578 459.463 70.8456C466.331 73.7336 472.252 77.7169 477.228 82.7956C482.203 87.7749 486.085 93.7 488.871 100.571C491.757 107.343 493.201 114.613 493.201 122.38C493.201 130.148 491.757 137.467 488.871 144.338C486.085 151.11 482.203 157.035 477.228 162.114C472.252 167.093 466.331 171.027 459.463 173.914C452.698 176.802 445.331 178.246 437.371 178.246ZM437.371 159.126C442.346 159.126 446.974 158.23 451.253 156.438C455.632 154.645 459.415 152.155 462.599 148.969C465.883 145.782 468.42 141.948 470.211 137.467C472.104 132.886 473.048 127.857 473.048 122.38C473.048 116.903 472.104 111.924 470.211 107.443C468.42 102.862 465.883 98.978 462.599 95.7913C459.415 92.6047 455.632 90.115 451.253 88.3225C446.974 86.53 442.346 85.6338 437.371 85.6338C432.395 85.6338 427.717 86.53 423.34 88.3225C419.06 90.115 415.278 92.6047 411.994 95.7913C408.81 98.978 406.272 102.862 404.381 107.443C402.59 111.924 401.695 116.903 401.695 122.38C401.695 127.857 402.59 132.886 404.381 137.467C406.272 141.948 408.81 145.782 411.994 148.969C415.278 152.155 419.06 154.645 423.34 156.438C427.717 158.23 432.395 159.126 437.371 159.126ZM509.512 68.9038H529.365L562.057 125.517H563.251L595.943 68.9038H615.947V175.856H595.943V123.127L597.137 105.202H595.943L568.775 153.151H556.684L529.365 105.202H528.171L529.365 123.127V175.856H509.512V68.9038ZM637.505 175.856V68.9038H675.123C680.197 68.9038 684.925 69.7503 689.304 71.4431C693.782 73.0366 697.663 75.3269 700.947 78.3144C704.232 81.3019 706.819 84.8869 708.71 89.0694C710.599 93.1524 711.547 97.6835 711.547 102.663C711.547 107.741 710.599 112.372 708.71 116.554C706.819 120.637 704.232 124.173 700.947 127.16C697.663 130.148 693.782 132.488 689.304 134.181C684.925 135.774 680.197 136.571 675.123 136.571H657.657V175.856H637.505ZM675.422 117.451C680.696 117.451 684.675 115.957 687.364 112.969C690.05 109.982 691.394 106.546 691.394 102.663C691.394 100.77 691.044 98.9281 690.349 97.1356C689.751 95.3431 688.756 93.7997 687.364 92.505C686.069 91.111 684.428 90.0155 682.436 89.2188C680.446 88.4222 678.108 88.0238 675.422 88.0238H657.657V117.451H675.422ZM725.846 68.9038H745.998V156.736H791.228V175.856H725.846V68.9038Z" fill="white"/>
<path d="M144.427 93.6702L145.177 40.9714L71.7344 83.2789L116.699 109.257L144.427 93.6702Z" fill="white"/>
<path d="M143.469 155.097L144.968 213.393L247.655 156.572L246.905 99.0143L143.469 155.097Z" fill="white" stroke="white"/>
<path d="M20.4956 138.644V85.3571L143.469 154.926V213.393L20.4956 138.644Z" fill="white" stroke="white"/>
<path d="M71.428 84.0116L143.333 41.6543L114.121 29.0214L20.4956 84.0116L143.333 155.35L245.947 97.3875L224.975 84.0116L143.333 126.369L71.428 84.0116Z" stroke="white"/>
<path d="M18.7876 49.5071V148.521" stroke="white"/>
<path d="M97.3538 191.2L11.9556 138.279" stroke="white"/>
<path d="M87.1062 34.1429L1.70801 85.3571" stroke="white"/>
<path d="M937.426 94.1976C935.75 94.1976 934.124 93.9093 932.544 93.3333C931.065 92.661 929.735 91.7969 928.55 90.7408C927.467 89.5884 926.579 88.2922 925.887 86.8518C925.297 85.4114 925 83.8271 925 82.0987C925 80.3703 925.297 78.7859 925.887 77.3456C926.579 75.9054 927.467 74.657 928.55 73.6008C929.735 72.4485 931.065 71.5844 932.544 71.0081C934.124 70.336 935.75 70 937.426 70C940.878 70 943.836 71.2001 946.303 73.6008C948.769 75.9054 950 78.738 950 82.0987C950 85.4594 948.769 88.3401 946.303 90.7408C943.836 93.0452 940.878 94.1976 937.426 94.1976ZM927.811 175V104.424H947.19V175H927.811Z" fill="white"/>
<path d="M813.802 170H807L861.4 82L909 170H902.2L861.4 94.5714L813.802 170Z" stroke="white" stroke-width="12"/>
<path d="M859 157C866.181 157 872 150.732 872 143C872 135.268 866.181 129 859 129C851.821 129 846 135.268 846 143C846 150.732 851.821 157 859 157Z" fill="white"/>
<path d="M35.1782 102.983L46.5302 109.259L46.2408 121.255L34.8767 115.479L35.1782 102.983Z" fill="black"/>
<path d="M53.439 113.122L64.7909 119.398L64.5015 131.394L53.1375 125.618L53.439 113.122Z" fill="black"/>
<path d="M73.1438 125.601L84.4957 131.876L84.2063 143.873L72.8423 138.097L73.1438 125.601Z" fill="black"/>
<path d="M92.2654 136.771L103.617 143.047L103.328 155.043L91.9639 149.268L92.2654 136.771Z" fill="black"/>
<path d="M112.784 147.469L124.135 153.744L123.846 165.741L112.482 159.965L112.784 147.469Z" fill="black"/>
<path d="M34.655 124.672L46.0069 130.948L45.7175 142.944L34.3535 137.169L34.655 124.672Z" fill="black"/>
<path d="M52.9157 134.811L64.2677 141.087L63.9783 153.083L52.6143 147.308L52.9157 134.811Z" fill="black"/>
<path d="M72.6205 147.29L83.9725 153.566L83.683 165.562L72.319 159.787L72.6205 147.29Z" fill="black"/>
<path d="M91.7421 158.461L103.094 164.736L102.805 176.733L91.4406 170.957L91.7421 158.461Z" fill="black"/>
<path d="M112.26 169.158L123.612 175.434L123.323 187.43L111.959 181.654L112.26 169.158Z" fill="black"/>
</svg>
