<svg width="965" height="239" viewBox="0 0 965 239" fill="none" xmlns="http://www.w3.org/2000/svg">
<path d="M372.046 161.678C366.772 168.052 360.551 172.931 353.387 176.317C346.222 179.603 338.21 181.246 329.352 181.246C321.391 181.246 313.977 179.802 307.111 176.914C300.344 174.027 294.472 170.093 289.497 165.114C284.521 160.135 280.588 154.259 277.703 147.488C274.818 140.616 273.374 133.247 273.374 125.38C273.374 117.513 274.818 110.194 277.703 103.422C280.588 96.5506 284.521 90.6253 289.497 85.6463C294.472 80.6672 300.344 76.7336 307.111 73.8456C313.977 70.9578 321.391 69.5138 329.352 69.5138C337.911 69.5138 345.426 71.0075 351.894 73.995C358.463 76.9825 364.283 81.3144 369.359 86.9906L355.178 100.733C351.993 97.0486 348.31 94.111 344.131 91.92C340.051 89.7291 335.175 88.6338 329.502 88.6338C324.527 88.6338 319.849 89.53 315.47 91.3225C311.092 93.0155 307.26 95.4553 303.975 98.6419C300.792 101.828 298.253 105.712 296.363 110.293C294.472 114.774 293.526 119.803 293.526 125.38C293.526 130.957 294.472 136.035 296.363 140.616C298.253 145.098 300.792 148.932 303.975 152.118C307.26 155.305 311.092 157.794 315.47 159.587C319.849 161.28 324.527 162.126 329.502 162.126C335.473 162.126 340.748 160.931 345.325 158.541C350.003 156.052 354.133 152.566 357.716 148.085L372.046 161.678ZM437.371 181.246C429.41 181.246 421.995 179.802 415.129 176.914C408.363 174.027 402.489 170.093 397.514 165.114C392.538 160.035 388.607 154.11 385.722 147.338C382.934 140.467 381.541 133.148 381.541 125.38C381.541 117.613 382.934 110.343 385.722 103.571C388.607 96.7 392.538 90.7749 397.514 85.7956C402.489 80.7169 408.363 76.7336 415.129 73.8456C421.995 70.9578 429.41 69.5138 437.371 69.5138C445.331 69.5138 452.698 70.9578 459.463 73.8456C466.331 76.7336 472.252 80.7169 477.228 85.7956C482.203 90.7749 486.085 96.7 488.871 103.571C491.757 110.343 493.201 117.613 493.201 125.38C493.201 133.148 491.757 140.467 488.871 147.338C486.085 154.11 482.203 160.035 477.228 165.114C472.252 170.093 466.331 174.027 459.463 176.914C452.698 179.802 445.331 181.246 437.371 181.246ZM437.371 162.126C442.346 162.126 446.974 161.23 451.253 159.438C455.632 157.645 459.415 155.155 462.599 151.969C465.883 148.782 468.42 144.948 470.211 140.467C472.104 135.886 473.048 130.857 473.048 125.38C473.048 119.903 472.104 114.924 470.211 110.443C468.42 105.862 465.883 101.978 462.599 98.7913C459.415 95.6047 455.632 93.115 451.253 91.3225C446.974 89.53 442.346 88.6338 437.371 88.6338C432.395 88.6338 427.717 89.53 423.34 91.3225C419.06 93.115 415.278 95.6047 411.994 98.7913C408.81 101.978 406.272 105.862 404.381 110.443C402.59 114.924 401.695 119.903 401.695 125.38C401.695 130.857 402.59 135.886 404.381 140.467C406.272 144.948 408.81 148.782 411.994 151.969C415.278 155.155 419.06 157.645 423.34 159.438C427.717 161.23 432.395 162.126 437.371 162.126ZM509.512 71.9038H529.365L562.057 128.517H563.251L595.943 71.9038H615.947V178.856H595.943V126.127L597.137 108.202H595.943L568.775 156.151H556.684L529.365 108.202H528.171L529.365 126.127V178.856H509.512V71.9038ZM637.505 178.856V71.9038H675.123C680.197 71.9038 684.925 72.7503 689.304 74.4431C693.782 76.0366 697.663 78.3269 700.947 81.3144C704.232 84.3019 706.819 87.8869 708.71 92.0694C710.599 96.1524 711.547 100.683 711.547 105.663C711.547 110.741 710.599 115.372 708.71 119.554C706.819 123.637 704.232 127.173 700.947 130.16C697.663 133.148 693.782 135.488 689.304 137.181C684.925 138.774 680.197 139.571 675.123 139.571H657.657V178.856H637.505ZM675.422 120.451C680.696 120.451 684.675 118.957 687.364 115.969C690.05 112.982 691.394 109.546 691.394 105.663C691.394 103.77 691.044 101.928 690.349 100.136C689.751 98.3431 688.756 96.7997 687.364 95.505C686.069 94.111 684.428 93.0155 682.436 92.2188C680.446 91.4222 678.108 91.0238 675.422 91.0238H657.657V120.451H675.422ZM725.846 71.9038H745.998V159.736H791.228V178.856H725.846V71.9038Z" fill="black"/>
<path d="M144.428 93.6702L145.177 40.9714L71.7346 83.2789L116.699 109.257L144.428 93.6702Z" fill="#C4C4C4"/>
<path d="M143.469 155.097L144.968 213.393L247.655 156.572L246.905 99.0143L143.469 155.097Z" fill="black" stroke="black"/>
<path d="M20.4956 138.644V85.3571L143.469 154.926V213.393L20.4956 138.644Z" fill="#FFC115" stroke="#FFC115"/>
<path d="M71.428 84.0116L143.333 41.6543L114.121 29.0214L20.4956 84.0116L143.333 155.35L245.947 97.3875L224.975 84.0116L143.333 126.369L71.428 84.0116Z" stroke="black"/>
<path d="M18.7876 49.5071V148.521" stroke="black"/>
<path d="M97.354 191.2L11.9558 138.279" stroke="black"/>
<path d="M87.1062 34.1429L1.70801 85.3571" stroke="black"/>
<path d="M937.426 97.1976C935.75 97.1976 934.124 96.9093 932.544 96.3333C931.065 95.661 929.735 94.7969 928.55 93.7408C927.467 92.5884 926.579 91.2922 925.887 89.8518C925.297 88.4114 925 86.8271 925 85.0987C925 83.3703 925.297 81.7859 925.887 80.3456C926.579 78.9054 927.467 77.657 928.55 76.6008C929.735 75.4485 931.065 74.5844 932.544 74.0081C934.124 73.336 935.75 73 937.426 73C940.878 73 943.836 74.2001 946.303 76.6008C948.769 78.9054 950 81.738 950 85.0987C950 88.4594 948.769 91.3401 946.303 93.7408C943.836 96.0452 940.878 97.1976 937.426 97.1976ZM927.811 178V107.424H947.19V178H927.811Z" fill="#FFBE0B"/>
<path d="M813.802 173H807L861.4 85L909 173H902.2L861.4 97.5714L813.802 173Z" stroke="#FFBE0B" stroke-width="12"/>
<path d="M859 160C866.181 160 872 153.732 872 146C872 138.268 866.181 132 859 132C851.821 132 846 138.268 846 146C846 153.732 851.821 160 859 160Z" fill="#FFBE0B"/>
<path d="M35.178 102.983L46.5299 109.259L46.2405 121.255L34.8765 115.479L35.178 102.983Z" fill="white"/>
<path d="M53.4388 113.122L64.7907 119.398L64.5013 131.394L53.1373 125.618L53.4388 113.122Z" fill="white"/>
<path d="M73.1435 125.601L84.4955 131.876L84.2061 143.873L72.842 138.097L73.1435 125.601Z" fill="white"/>
<path d="M92.2651 136.771L103.617 143.047L103.328 155.043L91.9637 149.268L92.2651 136.771Z" fill="white"/>
<path d="M112.783 147.469L124.135 153.744L123.846 165.741L112.482 159.965L112.783 147.469Z" fill="white"/>
<path d="M34.6547 124.672L46.0067 130.948L45.7173 142.944L34.3532 137.169L34.6547 124.672Z" fill="white"/>
<path d="M52.9155 134.811L64.2674 141.087L63.978 153.083L52.614 147.308L52.9155 134.811Z" fill="white"/>
<path d="M72.6203 147.29L83.9722 153.566L83.6828 165.562L72.3188 159.787L72.6203 147.29Z" fill="white"/>
<path d="M91.7419 158.461L103.094 164.736L102.804 176.733L91.4404 170.957L91.7419 158.461Z" fill="white"/>
<path d="M112.26 169.158L123.612 175.434L123.323 187.43L111.959 181.654L112.26 169.158Z" fill="white"/>
</svg>
