<svg width="30" height="30" viewBox="0 0 30 30" fill="none" xmlns="http://www.w3.org/2000/svg">
<path d="M14.9999 0C8.8891 0 3.91779 4.97132 3.91779 11.0821C3.91779 13.0939 4.82 15.2575 4.85781 15.3488C5.14921 16.0404 5.72417 17.1147 6.13878 17.7445L13.7372 29.2575C14.0482 29.7295 14.5084 30 14.9999 30C15.4915 30 15.9517 29.7295 16.2626 29.2581L23.8617 17.7445C24.277 17.1147 24.8513 16.0404 25.1427 15.3488C25.1805 15.2581 26.0821 13.0945 26.0821 11.0821C26.0821 4.97132 21.1107 0 14.9999 0ZM23.9406 14.8429C23.6805 15.4628 23.1453 16.4622 22.7731 17.0267L15.174 28.5404C15.024 28.7679 14.9765 28.7679 14.8265 28.5404L7.22743 17.0267C6.8552 16.4622 6.32 15.4622 6.0599 14.8422C6.04882 14.8155 5.22157 12.824 5.22157 11.0821C5.22157 5.69035 9.60814 1.30378 14.9999 1.30378C20.3917 1.30378 24.7783 5.69035 24.7783 11.0821C24.7783 12.8266 23.9491 14.8233 23.9406 14.8429Z" fill="black"/>
<path d="M14.9999 5.21573C11.7646 5.21573 9.1329 7.84806 9.1329 11.0827C9.1329 14.3174 11.7646 16.9498 14.9999 16.9498C18.2352 16.9498 20.8669 14.3174 20.8669 11.0827C20.8669 7.84806 18.2352 5.21573 14.9999 5.21573ZM14.9999 15.646C12.4843 15.646 10.4367 13.599 10.4367 11.0827C10.4367 8.56645 12.4843 6.51951 14.9999 6.51951C17.5156 6.51951 19.5631 8.56645 19.5631 11.0827C19.5631 13.599 17.5156 15.646 14.9999 15.646Z" fill="black"/>
</svg>
