<svg width="30" height="30" viewBox="0 0 30 30" fill="none" xmlns="http://www.w3.org/2000/svg">
<path d="M15 30C14.2731 30 13.6816 29.4086 13.6816 28.6816C13.6816 28.6583 13.6823 28.6351 13.6835 28.612L6.30516 25.5558C6.06369 25.824 5.714 25.9928 5.32559 25.9928C4.59867 25.9928 4.00723 25.4013 4.00723 24.6744C4.00723 23.9475 4.59867 23.3561 5.32559 23.3561C6.0525 23.3561 6.64395 23.9475 6.64395 24.6744C6.64395 24.6978 6.6433 24.721 6.64213 24.7441L14.0204 27.8002C14.2619 27.5321 14.6116 27.3633 15 27.3633C15.3884 27.3633 15.7381 27.5321 15.9796 27.8002L23.3579 24.7441C23.3566 24.7209 23.3561 24.6978 23.3561 24.6744C23.3561 23.9475 23.9475 23.3561 24.6744 23.3561C25.4013 23.3561 25.9928 23.9475 25.9928 24.6744C25.9928 25.4013 25.4013 25.9928 24.6744 25.9928C24.286 25.9928 23.9363 25.824 23.6948 25.5558L16.3165 28.612C16.3178 28.6351 16.3184 28.6583 16.3184 28.6816C16.3184 29.4086 15.7269 30 15 30ZM15 28.2422C14.7577 28.2422 14.5605 28.4393 14.5605 28.6816C14.5605 28.924 14.7577 29.1211 15 29.1211C15.2423 29.1211 15.4395 28.924 15.4395 28.6816C15.4395 28.4393 15.2423 28.2422 15 28.2422ZM24.6744 24.2349C24.432 24.2349 24.2349 24.432 24.2349 24.6744C24.2349 24.9167 24.432 25.1138 24.6744 25.1138C24.9167 25.1138 25.1138 24.9167 25.1138 24.6744C25.1138 24.432 24.9167 24.2349 24.6744 24.2349ZM5.32564 24.2349C5.0833 24.2349 4.88619 24.432 4.88619 24.6744C4.88619 24.9167 5.0833 25.1138 5.32564 25.1138C5.56799 25.1138 5.7651 24.9167 5.7651 24.6744C5.7651 24.432 5.56793 24.2349 5.32564 24.2349ZM15 24.7266C9.63674 24.7266 5.27344 20.3633 5.27344 15C5.27344 9.63674 9.63674 5.27344 15 5.27344C16.9013 5.27344 18.7431 5.82211 20.3264 6.86021C20.5294 6.99328 20.586 7.26574 20.453 7.46871C20.3199 7.67174 20.0473 7.72828 19.8445 7.59527C19.3479 7.26973 18.8235 6.99715 18.2784 6.77965C18.6727 7.18014 19.04 7.65662 19.3735 8.20447C19.5812 8.54549 19.7714 8.90748 19.9434 9.28711H21.7581C21.5401 9.0307 21.3062 8.78479 21.0566 8.55029C20.8796 8.38412 20.871 8.10604 21.0372 7.92914C21.2034 7.75213 21.4815 7.74352 21.6584 7.90975C23.6082 9.74144 24.7266 12.3257 24.7266 15C24.7266 20.3633 20.3633 24.7266 15 24.7266ZM15.4395 20.7129V23.8161C16.6281 23.6446 17.7452 22.78 18.6229 21.3384C18.7451 21.1376 18.8608 20.929 18.9697 20.7129H15.4395ZM11.0303 20.7129C11.1392 20.929 11.2549 21.1376 11.3771 21.3384C12.2548 22.7801 13.3719 23.6446 14.5605 23.8161V20.7129H11.0303ZM19.9435 20.7129C19.7715 21.0925 19.5812 21.4545 19.3736 21.7955C19.041 22.3416 18.6749 22.8169 18.2821 23.2166C19.6344 22.6744 20.8233 21.8073 21.7509 20.7129L19.9435 20.7129ZM8.249 20.7129C9.1766 21.8073 10.3656 22.6744 11.7178 23.2165C11.325 22.8169 10.9589 22.3416 10.6264 21.7955C10.4187 21.4545 10.2285 21.0925 10.0564 20.7128L8.249 20.7129ZM20.298 19.834H22.4074C23.2425 18.5585 23.7574 17.0551 23.8369 15.4395H21.0878C21.0448 17.004 20.7727 18.5037 20.298 19.834ZM15.4395 19.834H19.3606C19.8699 18.528 20.1628 17.0225 20.2086 15.4395H15.4395V19.834ZM10.6394 19.834H14.5605V15.4395H9.79143C9.83725 17.0225 10.1301 18.528 10.6394 19.834ZM7.59264 19.834H9.70201C9.22723 18.5037 8.95518 17.004 8.91223 15.4395H6.16313C6.24258 17.0551 6.7575 18.5585 7.59264 19.834ZM21.0878 14.5605H23.8371C23.7607 12.9714 23.2705 11.468 22.4164 10.166H20.298C20.7727 11.4963 21.0448 12.996 21.0878 14.5605ZM15.4395 14.5605H20.2086C20.1628 12.9775 19.87 11.472 19.3606 10.166H15.4395V11.1914C15.4395 11.4342 15.2428 11.6309 15 11.6309C14.7572 11.6309 14.5605 11.4342 14.5605 11.1914V10.166H10.6394C10.1301 11.472 9.83725 12.9775 9.79143 14.5605H14.5605V12.9492C14.5605 12.7065 14.7572 12.5098 15 12.5098C15.2428 12.5098 15.4395 12.7065 15.4395 12.9492V14.5605ZM6.16313 14.5605H8.91223C8.95518 12.996 9.22728 11.4963 9.70201 10.166H7.59264C6.7575 11.4415 6.24258 12.9449 6.16313 14.5605ZM15.4395 9.28711H18.9697C18.8608 9.07102 18.7451 8.86236 18.6229 8.66156C17.7452 7.21992 16.6281 6.35537 15.4395 6.18393V9.28711ZM11.0303 9.28711H14.5605V6.18393C13.3719 6.35537 12.2548 7.21998 11.3771 8.66156C11.2549 8.86236 11.1392 9.07102 11.0303 9.28711ZM8.249 9.28711H10.0565C10.2285 8.90748 10.4188 8.54555 10.6264 8.20447C10.959 7.65838 11.3251 7.18307 11.7179 6.7834C10.3656 7.32557 9.1766 8.1927 8.249 9.28711ZM25.6217 22.8265C25.5656 22.8265 25.5087 22.8157 25.4537 22.7929C25.2295 22.7 25.1229 22.443 25.2159 22.2188L27.8002 15.9796C27.5321 15.7381 27.3633 15.3884 27.3633 15C27.3633 14.6116 27.5321 14.2619 27.8002 14.0204L24.7441 6.64213C24.7209 6.64336 24.6978 6.64395 24.6744 6.64395C23.9475 6.64395 23.3561 6.0525 23.3561 5.32559C23.3561 4.59867 23.9475 4.00723 24.6744 4.00723C25.4013 4.00723 25.9928 4.59867 25.9928 5.32559C25.9928 5.714 25.824 6.06369 25.5558 6.30516L28.612 13.6835C28.6351 13.6822 28.6583 13.6816 28.6816 13.6816C29.4086 13.6816 30 14.2731 30 15C30 15.7269 29.4086 16.3184 28.6816 16.3184C28.6583 16.3184 28.6351 16.3177 28.612 16.3165L26.0279 22.5551C25.9578 22.7243 25.7941 22.8265 25.6217 22.8265ZM28.6816 14.5605C28.4393 14.5605 28.2422 14.7577 28.2422 15C28.2422 15.2423 28.4393 15.4395 28.6816 15.4395C28.924 15.4395 29.1211 15.2423 29.1211 15C29.1211 14.7577 28.924 14.5605 28.6816 14.5605ZM24.6744 4.88619C24.432 4.88619 24.2349 5.0833 24.2349 5.32564C24.2349 5.56799 24.432 5.7651 24.6744 5.7651C24.9167 5.7651 25.1138 5.56799 25.1138 5.32564C25.1138 5.0833 24.9167 4.88619 24.6744 4.88619ZM4.3783 22.8265C4.20586 22.8265 4.04227 22.7244 3.97213 22.5551L1.38803 16.3165C1.36488 16.3178 1.34174 16.3184 1.31836 16.3184C0.591445 16.3184 0 15.7269 0 15C0 14.2731 0.591445 13.6816 1.31836 13.6816C1.34174 13.6816 1.36494 13.6823 1.38803 13.6835L4.44416 6.30516C4.17603 6.06369 4.00723 5.714 4.00723 5.32559C4.00723 4.59867 4.59867 4.00723 5.32559 4.00723C5.714 4.00723 6.06369 4.17603 6.30516 4.44416L13.6835 1.38803C13.6822 1.36488 13.6816 1.34174 13.6816 1.31836C13.6816 0.591445 14.2731 0 15 0C15.7269 0 16.3184 0.591445 16.3184 1.31836C16.3184 1.34174 16.3177 1.36494 16.3165 1.38803L22.5638 3.9757C22.788 4.06857 22.8945 4.32562 22.8016 4.54986C22.7087 4.7741 22.4516 4.88074 22.2274 4.7877L15.9796 2.19979C15.7381 2.46785 15.3884 2.63672 15 2.63672C14.6116 2.63672 14.2619 2.46791 14.0204 2.19979L6.64213 5.25592C6.64336 5.27906 6.64395 5.30221 6.64395 5.32559C6.64395 6.0525 6.0525 6.64395 5.32559 6.64395C5.30221 6.64395 5.279 6.6433 5.25592 6.64213L2.19979 14.0204C2.46791 14.2619 2.63672 14.6116 2.63672 15C2.63672 15.3884 2.46791 15.7381 2.19979 15.9796L4.78406 22.2188C4.87699 22.443 4.77053 22.7 4.54623 22.7929C4.49127 22.8157 4.43432 22.8265 4.3783 22.8265ZM1.31836 14.5605C1.07602 14.5605 0.878906 14.7577 0.878906 15C0.878906 15.2423 1.07602 15.4395 1.31836 15.4395C1.5607 15.4395 1.75781 15.2423 1.75781 15C1.75781 14.7577 1.5607 14.5605 1.31836 14.5605ZM5.32564 4.88619C5.0833 4.88619 4.88619 5.0833 4.88619 5.32564C4.88619 5.56799 5.0833 5.7651 5.32564 5.7651C5.56799 5.7651 5.7651 5.56799 5.7651 5.32564C5.7651 5.0833 5.56793 4.88619 5.32564 4.88619ZM15 0.878906C14.7577 0.878906 14.5605 1.07602 14.5605 1.31836C14.5605 1.5607 14.7577 1.75781 15 1.75781C15.2423 1.75781 15.4395 1.5607 15.4395 1.31836C15.4395 1.07602 15.2423 0.878906 15 0.878906Z" fill="black"/>
</svg>
