<svg width="30" height="30" viewBox="0 0 30 30" fill="none" xmlns="http://www.w3.org/2000/svg">
<g clip-path="url(#clip0)">
<path d="M26.7761 6.35901V4.73468C26.7761 4.54038 26.6947 4.36261 26.5668 4.23476C26.4373 4.10521 26.2612 4.02552 26.0669 4.02552H24.6086C24.4126 4.02552 24.2365 4.10521 24.107 4.23476C23.9791 4.36267 23.8993 4.54038 23.8993 4.73468V6.35907H26.7761V6.35901ZM8.40604 14.2567C8.235 14.084 8.235 13.8066 8.40604 13.6355C8.57713 13.4628 8.85615 13.4628 9.02725 13.6355L9.42756 14.0358L10.5387 12.923C10.7098 12.7519 10.9888 12.7519 11.1599 12.923C11.3327 13.0957 11.3327 13.3731 11.1599 13.5458L9.73822 14.9676C9.56707 15.1387 9.28805 15.1387 9.11695 14.9676L8.40604 14.2567ZM24.8976 9.18593C24.8976 8.94341 25.0936 8.74577 25.3378 8.74577C25.5803 8.74577 25.7762 8.94341 25.7762 9.18593V18.4091C25.7762 18.6515 25.5802 18.8492 25.3378 18.8492C25.0936 18.8492 24.8976 18.6515 24.8976 18.4091V9.18593ZM17.9698 24.0546H20.6738V22.1694H17.9698V24.0546ZM21.1123 24.9332C16.3354 24.9332 11.5568 24.9332 6.77994 24.9332C6.53742 24.9332 6.33979 24.7355 6.33979 24.493V21.7292C6.33979 21.4867 6.53742 21.2908 6.77994 21.2908H9.92414V18.786C9.92414 18.5436 10.1201 18.3476 10.3626 18.3476H13.9469C14.1894 18.3476 14.3854 18.5436 14.3854 18.786V19.5667H17.5296C17.7721 19.5667 17.9697 19.7643 17.9697 20.0068V21.2908H21.1122C21.3547 21.2908 21.5524 21.4867 21.5524 21.7292V24.493C21.5524 24.7355 21.3548 24.9332 21.1123 24.9332ZM14.3855 24.0546H17.0895V20.447H14.3855V24.0546ZM10.8028 24.0546H13.5068V20.0068V19.2263H10.8028V24.0546ZM7.21846 24.0546H9.9242V22.1694H7.21846V24.0546ZM5.36484 8.74583H23.0191V6.79753V4.73468C23.0191 4.29786 23.1984 3.90095 23.4858 3.61355C23.7731 3.3262 24.1701 3.14679 24.6086 3.14679H26.0669C26.5037 3.14679 26.9007 3.3262 27.188 3.61355C27.4754 3.90089 27.6547 4.29786 27.6547 4.73468V6.79753V8.74583H29.5615C29.804 8.74583 29.9999 8.94347 29.9999 9.18599V26.4147C29.9999 26.6572 29.8039 26.8532 29.5615 26.8532H17.3951C17.1526 26.8532 16.9566 26.6571 16.9566 26.4147C16.9566 26.1722 17.1526 25.9745 17.3951 25.9745H29.1214V9.62444H27.6548V12.8018C27.6548 13.0443 27.4571 13.242 27.2146 13.242C26.9721 13.242 26.7761 13.0443 26.7761 12.8018V9.18599V7.23774H23.8993V9.18599V20.3574H26.7761V14.7932C26.7761 14.5507 26.9721 14.3531 27.2146 14.3531C27.4571 14.3531 27.6548 14.5507 27.6548 14.7932V20.7958C27.6548 20.9021 27.6265 20.9553 27.58 21.045L25.7297 24.689C25.6883 24.7704 25.6218 24.8401 25.5338 24.885C25.3178 24.9946 25.0554 24.9066 24.9458 24.6907L23.0888 21.0367C23.0456 20.9487 23.0191 20.8989 23.0191 20.7959V9.62444H5.36484V12.9496C5.36484 13.1921 5.16885 13.3898 4.92633 13.3898C4.68381 13.3898 4.48617 13.1921 4.48617 12.9496V9.18599V4.38089C4.10912 4.14511 3.68396 4.02552 3.23883 4.02552C2.58773 4.02552 1.99811 4.2896 1.56955 4.71646C1.1427 5.14495 0.878555 5.73458 0.878555 6.38567V21.3971C0.901816 21.3721 0.925078 21.3472 0.948281 21.324C1.53463 20.7377 2.34516 20.3756 3.23877 20.3756C3.5959 20.3756 3.94137 20.4355 4.26855 20.5434C4.34168 20.5683 4.41475 20.5965 4.48611 20.6264V14.9411C4.48611 14.6986 4.68375 14.501 4.92627 14.501C5.16879 14.501 5.36479 14.6986 5.36479 14.9411V21.3805C5.36479 21.4719 5.3349 21.5649 5.27508 21.6447C5.13059 21.8373 4.85484 21.8755 4.66055 21.7293C4.45957 21.5766 4.23199 21.4553 3.98953 21.3755C3.75703 21.2975 3.50455 21.2543 3.23883 21.2543C2.58773 21.2543 1.99811 21.5184 1.56955 21.9453C1.1427 22.3721 0.878555 22.9634 0.878555 23.6145C0.878555 24.2673 1.14264 24.8568 1.56955 25.2837C1.99805 25.7105 2.58768 25.9746 3.23883 25.9746H15.4052C15.6478 25.9746 15.8437 26.1723 15.8437 26.4148C15.8437 26.6573 15.6477 26.8533 15.4052 26.8533H3.23883C2.34521 26.8533 1.53469 26.4912 0.94834 25.9049C0.362051 25.3185 0 24.5097 0 23.6144V6.38562C0 5.492 0.362051 4.68147 0.94834 4.09519C1.53469 3.50884 2.34521 3.14673 3.23883 3.14673C3.93141 3.14673 4.61238 3.37261 5.16879 3.78458C5.28674 3.86427 5.36479 3.9988 5.36479 4.15167V8.74583H5.36484ZM26.5004 21.236H24.1734L25.3378 23.5264L26.5004 21.236ZM20.6273 11.4083C20.8698 11.4083 21.0657 11.6059 21.0657 11.8484C21.0657 12.0909 20.8697 12.2869 20.6273 12.2869H14.6794C14.4369 12.2869 14.241 12.0909 14.241 11.8484C14.241 11.6059 14.437 11.4083 14.6794 11.4083H20.6273ZM18.1542 15.6038C18.3983 15.6038 18.5943 15.7998 18.5943 16.0422C18.5943 16.2847 18.3983 16.4824 18.1542 16.4824H14.6795C14.437 16.4824 14.241 16.2847 14.241 16.0422C14.241 15.7997 14.437 15.6038 14.6795 15.6038H18.1542ZM20.6273 13.506C20.8698 13.506 21.0657 13.702 21.0657 13.9461C21.0657 14.1887 20.8697 14.3847 20.6273 14.3847H14.6794C14.4369 14.3847 14.241 14.1886 14.241 13.9461C14.241 13.702 14.437 13.506 14.6794 13.506H20.6273ZM7.26662 10.988H12.3009C12.5435 10.988 12.7394 11.1857 12.7394 11.4282V16.4625C12.7394 16.705 12.5434 16.9026 12.3009 16.9026H7.26662C7.02246 16.9026 6.82646 16.705 6.82646 16.4625V11.4282C6.82646 11.1857 7.02246 10.988 7.26662 10.988ZM11.8608 11.8683H7.70514V16.024H11.8608V11.8683Z" fill="black"/>
</g>
<defs>
<clipPath id="clip0">
<rect width="30" height="30" fill="white"/>
</clipPath>
</defs>
</svg>
