<svg width="30" height="30" viewBox="0 0 30 30" fill="none" xmlns="http://www.w3.org/2000/svg">
<g clip-path="url(#clip0)">
<path d="M5.27641 23.2001C4.85641 23.2001 4.45267 23.305 4.09447 23.5018C2.20757 21.083 1.17188 18.0782 1.17188 15C1.17188 7.37503 7.37503 1.17188 15 1.17188C15.927 1.17188 16.8535 1.26411 17.7539 1.44608C18.0707 1.51016 18.3801 1.30508 18.4442 0.987854C18.5083 0.670624 18.3032 0.361633 17.986 0.297318C17.0094 0.100021 16.0048 0 15 0C10.9934 0 7.22649 1.56029 4.39339 4.39339C1.56029 7.22649 0 10.9934 0 15C0 18.3703 1.14441 21.6593 3.22792 24.296C2.95967 24.6968 2.81548 25.1678 2.81548 25.6611C2.81548 26.3184 3.07159 26.9364 3.53645 27.401C4.00108 27.8659 4.61906 28.122 5.27641 28.122C5.93376 28.122 6.55174 27.8659 7.0166 27.401C7.48146 26.9364 7.73735 26.3182 7.73735 25.6609C7.73735 25.0037 7.48146 24.3855 7.0166 23.9209C6.55174 23.456 5.93376 23.2001 5.27641 23.2001ZM6.18782 26.5725C5.94452 26.816 5.62065 26.9501 5.27641 26.9501C4.93217 26.9501 4.60854 26.816 4.36501 26.5725C4.12148 26.329 3.98735 26.0053 3.98735 25.6611C3.98735 25.3166 4.12148 24.993 4.36501 24.7495C4.60831 24.5059 4.93217 24.372 5.27641 24.372C5.62065 24.372 5.94429 24.5061 6.18782 24.7495C6.43135 24.993 6.56548 25.3166 6.56548 25.6611C6.56548 26.0053 6.43135 26.329 6.18782 26.5725Z" fill="black"/>
<path d="M26.7712 5.70329C27.4082 4.74771 27.3058 3.44125 26.4633 2.59874C25.9985 2.13411 25.3805 1.87799 24.7231 1.87799C24.0658 1.87799 23.4478 2.13411 22.983 2.59874C22.5181 3.0636 22.2622 3.68158 22.2622 4.33893C22.2622 4.99628 22.5181 5.61426 22.983 6.07912C23.4478 6.54398 24.0658 6.79987 24.7231 6.79987C25.1431 6.79987 25.5469 6.69504 25.9051 6.4982C27.792 8.91725 28.8277 11.9218 28.8277 15C28.8277 22.625 22.6245 28.8281 14.9996 28.8281C14.0817 28.8281 13.1639 28.7377 12.272 28.5592C11.9547 28.4958 11.646 28.7016 11.5823 29.0188C11.5189 29.3363 11.7247 29.6448 12.0419 29.7084C13.0094 29.9018 14.0046 30 14.9996 30C19.0061 30 22.7731 28.4397 25.6062 25.6066C28.4393 22.7735 29.9996 19.0066 29.9996 15C29.9996 11.6295 28.8549 8.34024 26.7712 5.70329ZM23.8117 5.25056C23.5682 5.00703 23.4341 4.6834 23.4341 4.33893C23.4341 3.99469 23.5682 3.67105 23.8117 3.42752C24.055 3.18399 24.3789 3.04987 24.7231 3.04987C25.0674 3.04987 25.3912 3.18399 25.6348 3.42752C26.1372 3.93015 26.1372 4.74794 25.6348 5.25056C25.3912 5.49387 25.0674 5.62799 24.7231 5.62799C24.3787 5.62799 24.055 5.49387 23.8117 5.25056Z" fill="black"/>
<path d="M12.5821 25.0781C12.5821 25.4018 12.8446 25.6641 13.168 25.6641H16.8317C17.1554 25.6641 17.4177 25.4018 17.4177 25.0781V23.9422C18.1881 23.7348 18.9246 23.4295 19.6168 23.0308L20.4188 23.8328C20.5286 23.9426 20.6776 24.0044 20.8333 24.0044C20.9885 24.0044 21.1377 23.9426 21.2476 23.8326L23.8371 21.2411C24.0658 21.0123 24.0658 20.6413 23.8371 20.4126L23.036 19.6115C23.4348 18.9194 23.7401 18.1828 23.9474 17.4124H25.079C25.4027 17.4124 25.665 17.1501 25.665 16.8265V13.1628C25.665 12.8391 25.4027 12.5768 25.079 12.5768H23.9472C23.7399 11.8066 23.4348 11.0701 23.036 10.378L23.8328 9.58122C23.9426 9.47136 24.0044 9.32213 24.0044 9.16672C24.0042 9.01131 23.9424 8.86208 23.8326 8.75221L21.2409 6.16264C21.0123 5.93399 20.6413 5.93399 20.4124 6.16287L19.6168 6.95869C18.9246 6.55998 18.1881 6.25465 17.4177 6.04729V4.92188C17.4177 4.59824 17.1554 4.33594 16.8317 4.33594H13.168C12.8446 4.33594 12.5821 4.59824 12.5821 4.92188V6.04752C11.8119 6.25465 11.0754 6.55998 10.3832 6.95869L9.5874 6.16287C9.35875 5.93422 8.98773 5.93399 8.75885 6.16264L6.16745 8.75244C6.05736 8.8623 5.99556 9.01131 5.99556 9.16672C5.99556 9.32213 6.05736 9.47136 6.16722 9.58122L6.96396 10.378C6.56525 11.0701 6.25992 11.8064 6.05255 12.5768H4.92302C4.59938 12.5768 4.33708 12.8391 4.33708 13.1625L4.33502 16.8262C4.33479 16.9817 4.39659 17.1309 4.50646 17.2408C4.61632 17.3506 4.76532 17.4124 4.92096 17.4124H6.05255C6.25992 18.1828 6.56525 18.9194 6.96396 19.6115L6.16287 20.4126C5.93422 20.6413 5.93399 21.0123 6.16287 21.2411L8.75244 23.8326C8.86231 23.9424 9.01131 24.0044 9.16672 24.0044H9.16695C9.32236 24.0044 9.47136 23.9426 9.58122 23.8328L10.383 23.0308C11.0754 23.4295 11.8119 23.7348 12.5821 23.9422V25.0781ZM10.6128 21.7985C10.3809 21.6486 10.0758 21.6811 9.88037 21.8763L9.16695 22.5897L7.4057 20.8271L8.11844 20.1141C8.31368 19.9189 8.34618 19.6138 8.19626 19.3819C7.66502 18.5598 7.29149 17.6587 7.08641 16.7033C7.02828 16.4335 6.78978 16.2405 6.51352 16.2405H5.50713L5.5085 13.7487H6.51352C6.78978 13.7487 7.02828 13.556 7.08641 13.2859C7.29149 12.3308 7.66502 11.4297 8.19626 10.6075C8.34618 10.3757 8.31368 10.0706 8.11844 9.87534L7.41028 9.16695L9.1729 7.4057L9.88037 8.1134C10.0758 8.30864 10.3807 8.34091 10.6128 8.19122C11.4347 7.65999 12.3358 7.28645 13.2912 7.08138C13.561 7.02324 13.754 6.78452 13.754 6.50848V5.50781H16.2458V6.50826C16.2458 6.78452 16.4385 7.02324 16.7086 7.08115C17.6637 7.28645 18.5651 7.65976 19.387 8.19099C19.6188 8.34091 19.9239 8.30864 20.1192 8.11317L20.8269 7.4057L22.5895 9.16695L21.8813 9.87511C21.6859 10.0706 21.6536 10.3757 21.8035 10.6075C22.3347 11.4297 22.7081 12.3308 22.9134 13.2859C22.9713 13.556 23.21 13.7487 23.4863 13.7487H24.4931V16.2405H23.4863C23.21 16.2405 22.9715 16.4335 22.9134 16.7033C22.7083 17.6585 22.3347 18.5598 21.8035 19.3817C21.6536 19.6138 21.6861 19.9189 21.8813 20.1141L22.5941 20.8269L20.8328 22.5895L20.1194 21.8763C19.9239 21.6808 19.6188 21.6486 19.387 21.7985C18.5648 22.3297 17.6637 22.703 16.7086 22.9083C16.4385 22.9665 16.2458 23.205 16.2458 23.4812V24.4922H13.754V23.4812C13.754 23.2052 13.561 22.9665 13.2912 22.9083C12.336 22.7032 11.4349 22.3297 10.6128 21.7985Z" fill="black"/>
<path d="M19.8415 15C19.8415 12.3303 17.6697 10.1584 15 10.1584C12.3303 10.1584 10.1585 12.3303 10.1585 15C10.1585 17.6697 12.3303 19.8415 15 19.8415C17.6697 19.8415 19.8415 17.6697 19.8415 15ZM11.3303 15C11.3303 12.9764 12.9765 11.3303 15 11.3303C17.0235 11.3303 18.6697 12.9767 18.6697 15C18.6697 17.0233 17.0235 18.6696 15 18.6696C12.9765 18.6696 11.3303 17.0235 11.3303 15Z" fill="black"/>
<path d="M20.3952 2.21602C20.5495 2.21602 20.7005 2.15331 20.8095 2.04436C20.9184 1.93472 20.9811 1.78366 20.9811 1.62939C20.9811 1.47604 20.9187 1.32475 20.8095 1.21512C20.7005 1.10617 20.5495 1.04346 20.3952 1.04346C20.2405 1.04346 20.0901 1.10617 19.9812 1.21512C19.872 1.32475 19.8093 1.47536 19.8093 1.62939C19.8093 1.78412 19.872 1.93472 19.9812 2.04436C20.0901 2.15331 20.2405 2.21602 20.3952 2.21602Z" fill="#FDFEFF"/>
<path d="M9.63043 27.7945C9.47639 27.7945 9.3251 27.8572 9.21616 27.9662C9.10721 28.0751 9.04449 28.2264 9.04449 28.3804C9.04449 28.5352 9.10721 28.6858 9.21616 28.7947C9.3251 28.9037 9.47639 28.9664 9.63043 28.9664C9.78447 28.9664 9.93576 28.9037 10.0447 28.7947C10.1537 28.6858 10.2164 28.5345 10.2164 28.3804C10.2164 28.2264 10.1537 28.0751 10.0447 27.9662C9.93576 27.8572 9.78447 27.7945 9.63043 27.7945Z" fill="black"/>
</g>
<defs>
<clipPath id="clip0">
<rect width="30" height="30" fill="white"/>
</clipPath>
</defs>
</svg>
