<svg width="16" height="17" viewBox="0 0 16 17" fill="none" xmlns="http://www.w3.org/2000/svg">
<path d="M15.8045 15.7908L11.2545 10.9565C12.1359 9.79983 12.6665 8.33004 12.6665 6.72923C12.6665 3.01902 9.82522 0.00012207 6.33325 0.00012207C2.84128 0.00012207 0 3.01899 0 6.7292C0 10.4394 2.84132 13.4583 6.33328 13.4583C7.83992 13.4583 9.22325 12.8945 10.3119 11.9581L14.8619 16.7924C14.9919 16.9305 15.1625 17 15.3332 17C15.5039 17 15.6745 16.9305 15.8045 16.7924C16.0652 16.5155 16.0652 16.0678 15.8045 15.7908ZM6.33328 12.0416C3.57597 12.0416 1.33333 9.65885 1.33333 6.7292C1.33333 3.79955 3.57597 1.41675 6.33328 1.41675C9.0906 1.41675 11.3332 3.79955 11.3332 6.7292C11.3332 9.65885 9.09057 12.0416 6.33328 12.0416Z" fill="black"/>
</svg>
